<svg width="21" height="22" viewBox="0 0 21 22" fill="none" xmlns="http://www.w3.org/2000/svg">
<path fill-rule="evenodd" clip-rule="evenodd" d="M8.50214 0.402763C8.95768 0.14026 9.47421 0.0020752 10 0.0020752C10.5258 0.0020752 11.0424 0.140271 11.4979 0.402795L11.5 0.403999L18.5 4.40399C18.9556 4.66704 19.334 5.04527 19.5973 5.50074C19.8606 5.95621 19.9995 6.47291 20 6.999V9.00002C20 9.55231 19.5523 10 19 10C18.4477 10 18 9.55231 18 9.00002V7.00105C17.9998 6.82569 17.9535 6.65345 17.8658 6.50163C17.7783 6.35034 17.6527 6.22461 17.5016 6.13697L17.5 6.13605L10.5 2.13606C10.348 2.04829 10.1755 2.00208 10 2.00208C9.82446 2.00208 9.65202 2.04828 9.5 2.13605L9.49614 2.13828L2.5 6.13605L2.49842 6.13696C2.34726 6.2246 2.22169 6.35033 2.13423 6.50163C2.04654 6.65333 2.00025 6.8254 2 7.00062V14.9994C2.00025 15.1746 2.04654 15.3467 2.13423 15.4984C2.22169 15.6497 2.34726 15.7754 2.49842 15.8631L2.5 15.864L9.5 19.864C9.65202 19.9518 9.82446 19.998 10 19.998C10.1755 19.998 10.348 19.9518 10.5 19.864L10.5048 19.8612L12.5048 18.7212C12.9846 18.4478 13.5953 18.615 13.8688 19.0948C14.1423 19.5746 13.975 20.1853 13.4952 20.4588L11.5 21.5961L11.4973 21.5976C11.0419 21.8599 10.5256 21.998 10 21.998C9.4741 21.998 8.95745 21.8597 8.50185 21.5971L8.5 21.5961L1.50386 17.5983L1.5 17.5961C1.04439 17.333 0.66597 16.9548 0.402692 16.4993C0.139414 16.0438 0.000539601 15.5271 0 15.0011V6.999C0.000539601 6.47291 0.139414 5.95621 0.402692 5.50074C0.66597 5.04527 1.04439 4.66704 1.5 4.404L1.50386 4.40177L8.50214 0.402763Z" fill="#7E7E7E"/>
<path fill-rule="evenodd" clip-rule="evenodd" d="M4.68367 2.74055C4.95952 2.26209 5.57101 2.09784 6.04947 2.37369L14.9995 7.53369C15.4779 7.80954 15.6422 8.42103 15.3663 8.8995C15.0905 9.37796 14.479 9.5422 14.0005 9.26635L5.05053 4.10635C4.57207 3.8305 4.40782 3.21901 4.68367 2.74055Z" fill="#7E7E7E"/>
<path fill-rule="evenodd" clip-rule="evenodd" d="M0.422738 5.50217C0.697695 5.0232 1.30888 4.85781 1.78785 5.13276L10 9.84697L18.2121 5.13276C18.6911 4.85781 19.3023 5.0232 19.5773 5.50217C19.8522 5.98115 19.6868 6.59233 19.2079 6.86729L10.4979 11.8673C10.1895 12.0443 9.81045 12.0443 9.50215 11.8673L0.792146 6.86729C0.313171 6.59233 0.147781 5.98115 0.422738 5.50217Z" fill="#7E7E7E"/>
<path fill-rule="evenodd" clip-rule="evenodd" d="M10 10C10.5523 10 11 10.4477 11 11V21C11 21.5523 10.5523 22 10 22C9.44771 22 9 21.5523 9 21V11C9 10.4477 9.44771 10 10 10Z" fill="#7E7E7E"/>
<path fill-rule="evenodd" clip-rule="evenodd" d="M16.5 13C15.6716 13 15 13.6716 15 14.5C15 15.3285 15.6716 16 16.5 16C17.3284 16 18 15.3285 18 14.5C18 13.6716 17.3284 13 16.5 13ZM13 14.5C13 12.567 14.567 11 16.5 11C18.433 11 20 12.567 20 14.5C20 16.433 18.433 18 16.5 18C14.567 18 13 16.433 13 14.5Z" fill="#7E7E7E"/>
<path fill-rule="evenodd" clip-rule="evenodd" d="M17.5629 15.5629C17.9534 15.1724 18.5866 15.1724 18.9771 15.5629L20.7071 17.2929C21.0976 17.6834 21.0976 18.3166 20.7071 18.7071C20.3166 19.0977 19.6834 19.0977 19.2929 18.7071L17.5629 16.9771C17.1724 16.5866 17.1724 15.9534 17.5629 15.5629Z" fill="#7E7E7E"/>
</svg>
